<svg width="20" height="20" viewBox="0 0 20 20" fill="none" xmlns="http://www.w3.org/2000/svg">
<path d="M14.5586 3.81555C14.8114 4.02798 15.091 4.30972 15.3642 4.60855L15.6345 4.91086C15.9975 5.32763 15.9994 5.9717 15.6045 6.44182L7.1732 16.4764C6.87973 16.8256 6.49661 17.0742 6.07336 17.1887L5.88977 17.2296C5.27494 17.3369 4.49486 17.4596 3.83498 17.521C3.50296 17.5519 3.22183 17.5657 3.01546 17.5582C2.99778 17.5576 2.98132 17.5544 2.96584 17.5535C2.96241 17.5388 2.95771 17.5234 2.95415 17.5067C2.91122 17.3047 2.87561 17.0249 2.8488 16.6924C2.82216 16.3621 2.80583 15.9993 2.79566 15.6414L2.78168 14.6181C2.78151 14.115 2.96714 13.6232 3.30249 13.2241L11.725 3.20001C12.122 2.72767 12.764 2.61855 13.2434 2.90945C13.7251 3.20202 14.2137 3.52581 14.5586 3.81555Z" stroke="#222628" stroke-width="1.4"/>
<path d="M10.3486 5C10.3486 5 11.214 6.32854 11.9946 6.84249C12.7752 7.35645 13.7501 7.91667 13.7501 7.91667" stroke="#222628" stroke-width="1.4" stroke-linecap="round"/>
<line x1="12.3665" y1="17.633" x2="17.6332" y2="17.633" stroke="#222628" stroke-width="1.4" stroke-linecap="round"/>
</svg>
