<svg width="22" height="23" viewBox="0 0 22 23" fill="none" xmlns="http://www.w3.org/2000/svg">
<path fill-rule="evenodd" clip-rule="evenodd" d="M11.2636 5.06215C11.0884 5.05042 10.9125 5.05042 10.7372 5.06215C10.1736 5.09987 9.61696 5.30878 8.87636 5.77326C8.12343 6.24547 7.23691 6.94423 6.00196 7.91919C4.4187 9.16914 3.78123 9.688 3.40947 10.3744C3.35298 10.4787 3.30124 10.5855 3.25438 10.6944C2.946 11.4115 2.93376 12.2334 2.93376 14.2506V15.5305C2.93376 16.845 2.93512 17.7663 3.02872 18.4625C3.11983 19.1402 3.28764 19.5077 3.55128 19.7713C3.81491 20.035 4.18239 20.2028 4.8601 20.2939C5.55626 20.3875 6.47759 20.3888 7.79209 20.3888H14.2088C15.5233 20.3888 16.4446 20.3875 17.1408 20.2939C17.8185 20.2028 18.1859 20.035 18.4496 19.7713C18.7132 19.5077 18.881 19.1402 18.9721 18.4625C19.0657 17.7663 19.0671 16.845 19.0671 15.5305V14.2506C19.0671 12.2334 19.0549 11.4115 18.7465 10.6944C18.6996 10.5855 18.6479 10.4787 18.5914 10.3744C18.2196 9.688 17.5822 9.16914 15.9989 7.91919C14.7639 6.94423 13.8774 6.24547 13.1245 5.77326C12.3839 5.30878 11.8272 5.09987 11.2636 5.06215ZM10.6515 3.78168C10.8839 3.76613 11.117 3.76613 11.3493 3.78168C12.204 3.83889 12.9685 4.16056 13.8064 4.68605C14.6251 5.19955 15.5656 5.94207 16.7642 6.88834L16.7941 6.91193C16.8342 6.94357 16.8738 6.97487 16.9131 7.00584C18.3385 8.13075 19.2068 8.81605 19.7198 9.76322C19.7947 9.90146 19.8633 10.043 19.9254 10.1874C20.351 11.177 20.3508 12.2832 20.3504 14.099C20.3504 14.149 20.3504 14.1995 20.3504 14.2506V15.5778C20.3504 16.834 20.3505 17.8419 20.244 18.6335C20.1338 19.4535 19.8989 20.137 19.357 20.6788C18.8152 21.2206 18.1318 21.4555 17.3118 21.5658C16.5201 21.6722 15.5122 21.6722 14.256 21.6722H7.74482C6.48862 21.6722 5.48075 21.6722 4.68909 21.5658C3.86908 21.4555 3.18564 21.2206 2.64382 20.6788C2.102 20.137 1.86708 19.4535 1.75683 18.6335C1.65039 17.8419 1.65041 16.834 1.65042 15.5778L1.65043 14.2506C1.65043 14.1995 1.65042 14.149 1.65041 14.099C1.65009 12.2832 1.6499 11.177 2.07544 10.1874C2.13755 10.043 2.20614 9.90146 2.28102 9.76322C2.79401 8.81605 3.66237 8.13075 5.08777 7.00584C5.12701 6.97487 5.16667 6.94357 5.20675 6.91193L5.23662 6.88834C6.43522 5.94208 7.37574 5.19955 8.1945 4.68605C9.03238 4.16056 9.79681 3.83889 10.6515 3.78168Z" fill="#222628"/>
<path fill-rule="evenodd" clip-rule="evenodd" d="M9.70213 17.8968C10.1136 17.7264 10.5547 17.6387 11.0001 17.6387C11.4455 17.6387 11.8865 17.7264 12.298 17.8968C12.7095 18.0673 13.0834 18.3171 13.3983 18.6321C13.7133 18.947 13.9631 19.3209 14.1336 19.7324C14.304 20.1439 14.3917 20.5849 14.3917 21.0303V21.672L7.6084 21.672L7.6084 21.0303C7.6084 20.5849 7.69613 20.1439 7.86657 19.7324C8.03702 19.3209 8.28685 18.947 8.60179 18.6321C8.91674 18.3171 9.29063 18.0673 9.70213 17.8968ZM11.0001 18.922C10.7232 18.922 10.449 18.9765 10.1932 19.0825C9.93745 19.1884 9.70502 19.3437 9.50925 19.5395C9.31347 19.7353 9.15817 19.9677 9.05222 20.2235C9.02974 20.2778 9.00957 20.3329 8.99175 20.3887L13.0084 20.3887C12.9906 20.3329 12.9704 20.2778 12.9479 20.2235C12.842 19.9677 12.6867 19.7353 12.4909 19.5395C12.2951 19.3437 12.0627 19.1884 11.8069 19.0825C11.5511 18.9765 11.2769 18.922 11.0001 18.922Z" fill="#222628"/>
</svg>
