<svg width="22" height="23" viewBox="0 0 22 23" fill="none" xmlns="http://www.w3.org/2000/svg">
<path d="M10.299 2.6971V2.6971C10.299 5.27195 10.299 6.55937 9.68107 7.48419C9.41356 7.88456 9.06981 8.22831 8.66945 8.49582C7.74463 9.11377 6.4572 9.11377 3.88235 9.11377L2.75 9.11377" stroke="#222628" stroke-width="1.28333"/>
<path d="M7.44673 4.17953L5.18241 6.02347C4.12172 6.88723 3.59138 7.31911 3.25754 7.88574C3.14736 8.07275 3.054 8.26917 2.97856 8.47269C2.75 9.08936 2.75 9.7733 2.75 11.1412V14.4306C2.75 17.1804 2.75 18.5553 3.45027 19.5191C3.67643 19.8304 3.95017 20.1042 4.26145 20.3303C5.22529 21.0306 6.6002 21.0306 9.35 21.0306H12.1917C14.9415 21.0306 16.3164 21.0306 17.2802 20.3303C17.5915 20.1042 17.8652 19.8304 18.0914 19.5191C18.7917 18.5553 18.7917 17.1804 18.7917 14.4306V9.29727C18.7917 6.54746 18.7917 5.17256 18.0914 4.20872C17.8652 3.89744 17.5915 3.6237 17.2802 3.39754C16.3164 2.69727 14.9415 2.69727 12.1917 2.69727H11.6143C10.5826 2.69727 10.0667 2.69727 9.58111 2.83342C9.42019 2.87854 9.26255 2.93461 9.10928 3.00124C8.64676 3.20229 8.24675 3.52804 7.44673 4.17953Z" stroke="#222628" stroke-width="1.28333"/>
<line x1="14.9413" y1="17.0889" x2="7.05801" y2="17.0889" stroke="#222628" stroke-width="1.28333" stroke-linecap="round"/>
<line x1="12.1913" y1="13.4219" x2="7.05801" y2="13.4219" stroke="#222628" stroke-width="1.28333" stroke-linecap="round"/>
</svg>
