<svg width="24" height="24" viewBox="0 0 24 24" fill="none" xmlns="http://www.w3.org/2000/svg">
<path d="M11.9965 2C14.3324 2 15.0516 3.34721 15.2031 4.64302C15.2755 5.26214 16.3955 5.93158 16.9755 5.70341C18.1277 5.25025 19.5637 5.22903 20.6568 7C21.7211 9.02485 20.6636 10.3803 19.5831 11.1632C19.1162 11.5015 19.1162 12.4985 19.5831 12.8368C20.6636 13.6197 21.7211 14.9751 20.6568 17C19.5637 18.771 18.1277 18.7497 16.9755 18.2966C16.3955 18.0684 15.2755 18.7379 15.2031 19.357C15.0516 20.6528 14.3324 22 11.9965 22C9.6607 22 8.9415 20.6528 8.78999 19.357C8.7176 18.7379 7.59764 18.0684 7.01756 18.2966C5.86545 18.7497 4.42936 18.771 3.33629 17C2.39144 15.2025 3.11878 13.9325 4.04992 13.1223C4.51409 12.7184 4.43646 11.4663 3.93536 11.1093C2.90294 10.3737 2.10764 9.10049 3.33629 7C4.38858 5.20101 5.70504 5.09638 6.80349 5.48925C7.40706 5.70512 8.71647 4.97007 8.83615 4.34033C9.06318 3.14576 9.84241 2 11.9965 2Z" stroke="#767676" stroke-width="1.4"/>
<circle cx="11.9961" cy="12" r="2.3" stroke="#767676" stroke-width="1.4"/>
</svg>
