<svg width="20" height="21" viewBox="0 0 20 21" fill="none" xmlns="http://www.w3.org/2000/svg">
<path d="M3.93973 13.6604C2.65223 12.3721 2.00806 11.7288 1.76889 10.8929C1.52889 10.0571 1.73389 9.1696 2.14389 7.39543L2.37973 6.3721C2.72389 4.87877 2.89639 4.1321 3.40723 3.62043C3.91806 3.10877 4.66556 2.9371 6.15889 2.59293L7.18223 2.35627C8.95723 1.9471 9.84389 1.7421 10.6797 1.98127C11.5156 2.22127 12.1589 2.86543 13.4464 4.15293L14.9714 5.67793C17.2139 7.9196 18.3331 9.0396 18.3331 10.4313C18.3331 11.8238 17.2131 12.9438 14.9722 15.1846C12.7306 17.4263 11.6106 18.5463 10.2181 18.5463C8.82639 18.5463 7.70556 17.4263 5.46473 15.1854L3.93973 13.6604Z" stroke="#767676" stroke-width="1.29545"/>
<path d="M8.35096 8.79082C9.00184 8.13994 9.00184 7.08467 8.35096 6.43379C7.70009 5.78292 6.64481 5.78292 5.99394 6.43379C5.34307 7.08467 5.34307 8.13994 5.99394 8.79082C6.64481 9.44169 7.70009 9.44169 8.35096 8.79082Z" stroke="#767676" stroke-width="1.29545"/>
<path d="M9.61865 15.6297L15.4345 9.81299" stroke="#767676" stroke-width="1.29545" stroke-linecap="round"/>
</svg>
